<?xml version="1.0" standalone="no"?>
<!DOCTYPE svg PUBLIC "-//W3C//DTD SVG 20010904//EN"
 "http://www.w3.org/TR/2001/REC-SVG-20010904/DTD/svg10.dtd">
<svg version="1.0" xmlns="http://www.w3.org/2000/svg"
 width="360.000000pt" height="360.000000pt" viewBox="0 0 360.000000 360.000000"
 preserveAspectRatio="xMidYMid meet">
<metadata>
Created by potrace 1.11, written by Peter Selinger 2001-2013
</metadata>
<g transform="translate(0.000000,360.000000) scale(0.100000,-0.100000)"
fill="#000000" stroke="none">
<path d="M1620 3433 c-290 -30 -607 -157 -835 -332 -491 -377 -733 -1013 -615
-1615 157 -803 868 -1367 1680 -1333 353 15 670 131 945 345 418 326 654 835
632 1362 -34 815 -640 1468 -1457 1569 -79 10 -272 12 -350 4z m389 -639 c201
-41 336 -109 456 -229 126 -125 188 -262 202 -445 l6 -80 -339 0 -339 0 -12
51 c-31 128 -146 193 -276 155 -40 -11 -64 -27 -91 -56 -41 -46 -51 -74 -51
-150 1 -78 38 -140 102 -172 l48 -23 678 -3 c372 -1 677 -5 677 -8 0 -2 -11
-22 -25 -44 l-25 -40 -118 0 -118 0 -32 -45 c-18 -25 -32 -48 -32 -50 0 -3 52
-5 115 -5 63 0 115 -3 115 -8 0 -4 -11 -24 -25 -45 l-26 -37 -124 0 -124 0
-31 -44 c-16 -25 -30 -47 -30 -50 0 -3 56 -6 125 -6 l124 0 -31 -50 -31 -51
-671 3 -671 3 -70 24 c-165 55 -285 143 -374 277 -84 124 -119 287 -101 461
16 152 63 268 155 385 120 153 348 267 595 297 95 12 272 5 369 -15z m244
-1648 c-4 -7 -73 -106 -153 -219 l-145 -206 -418 -1 -419 0 49 63 c27 34 89
114 138 177 49 63 104 134 122 158 l34 42 400 0 c338 0 399 -2 392 -14z"/>
</g>
</svg>
